<svg width="30" height="31" viewBox="0 0 30 31" fill="none" xmlns="http://www.w3.org/2000/svg">
<path d="M18.125 19.7625C18.225 19.875 18.225 20.1125 18.125 20.25C17.2125 21.125 15.5125 21.2 15 21.2C14.5125 21.2 12.8125 21.125 11.925 20.25C11.8 20.1125 11.8 19.875 11.925 19.7625C12.0625 19.6375 12.275 19.6375 12.4 19.7625C12.975 20.3375 14.1625 20.5 15 20.5C15.8625 20.5 17.075 20.3375 17.625 19.7625C17.7625 19.6375 17.975 19.6375 18.125 19.7625ZM13.4375 16.8C13.4375 16.0875 12.85 15.5 12.1375 15.5C11.425 15.5 10.8375 16.0875 10.8375 16.8C10.8375 17.5125 11.425 18.1125 12.1375 18.1C12.85 18.1 13.4375 17.5125 13.4375 16.8ZM17.8625 15.5C17.15 15.5 16.5625 16.125 16.5625 16.8125C16.5625 17.5 17.15 18.1125 17.8625 18.1125C18.575 18.1125 19.1625 17.5125 19.1625 16.8125C19.1625 16.125 18.575 15.5 17.8625 15.5ZM27.5 15.5C27.5 22.375 21.875 28 15 28C8.125 28 2.5 22.375 2.5 15.5C2.5 8.625 8.125 3 15 3C21.875 3 27.5 8.625 27.5 15.5ZM23.3375 15.5C23.3375 14.4875 22.5 13.675 21.525 13.675C21.025 13.675 20.575 13.875 20.25 14.1875C19 13.2875 17.2875 12.7125 15.375 12.6375L16.2125 8.725L18.925 9.3125C18.95 10 19.525 10.55 20.225 10.55C20.9375 10.55 21.525 9.9625 21.525 9.25C21.525 8.5375 20.9375 7.95 20.225 7.95C19.7125 7.95 19.2625 8.25 19.0625 8.6875L16.025 8.0375C15.9375 8 15.85 8.0375 15.7875 8.0875C15.7125 8.1375 15.675 8.2125 15.6625 8.3L14.7375 12.65C12.8 12.7125 11.05 13.2875 9.775 14.2C9.45 13.8875 9 13.7 8.5125 13.7C7.5 13.7 6.6875 14.5125 6.6875 15.5C6.6875 16.2625 7.1375 16.8875 7.7625 17.175C7.7375 17.375 7.725 17.525 7.725 17.725C7.725 20.5 10.9875 22.8125 15 22.8125C19.0375 22.8125 22.3125 20.5375 22.3125 17.725C22.3125 17.55 22.3 17.375 22.2625 17.175C22.8875 16.8875 23.3375 16.25 23.3375 15.5Z" fill="#EDDECC"/>
</svg>
