<svg width="30" height="31" viewBox="0 0 30 31" fill="none" xmlns="http://www.w3.org/2000/svg">
<g clip-path="url(#clip0_6_64)">
<path d="M27.5 30.5L20.9375 24.25L21.725 26.75H5.625C4.7962 26.75 4.00134 26.4208 3.41529 25.8347C2.82924 25.2487 2.5 24.4538 2.5 23.625V4.875C2.5 4.0462 2.82924 3.25134 3.41529 2.66529C4.00134 2.07924 4.7962 1.75 5.625 1.75H24.375C25.2038 1.75 25.9987 2.07924 26.5847 2.66529C27.1708 3.25134 27.5 4.0462 27.5 4.875V30.5ZM15 9C11.65 9 9.3 10.4375 9.3 10.4375C10.5875 9.2875 12.8375 8.625 12.8375 8.625L12.625 8.4125C10.5125 8.45 8.6 9.9125 8.6 9.9125C6.45 14.4 6.5875 18.275 6.5875 18.275C8.3375 20.5375 10.9375 20.375 10.9375 20.375L11.825 19.25C10.2625 18.9125 9.275 17.525 9.275 17.525C9.275 17.525 11.625 19.125 15 19.125C18.375 19.125 20.725 17.525 20.725 17.525C20.725 17.525 19.7375 18.9125 18.175 19.25L19.0625 20.375C19.0625 20.375 21.6625 20.5375 23.4125 18.275C23.4125 18.275 23.55 14.4 21.4 9.9125C21.4 9.9125 19.4875 8.45 17.375 8.4125L17.1625 8.625C17.1625 8.625 19.4125 9.2875 20.7 10.4375C20.7 10.4375 18.35 9 15 9ZM12.4125 13.7375C13.225 13.7375 13.8875 14.45 13.875 15.325C13.875 16.1875 13.225 16.9125 12.4125 16.9125C11.6125 16.9125 10.9625 16.1875 10.9625 15.325C10.9625 14.45 11.6 13.7375 12.4125 13.7375ZM17.625 13.7375C18.4375 13.7375 19.0875 14.45 19.0875 15.325C19.0875 16.1875 18.4375 16.9125 17.625 16.9125C16.825 16.9125 16.175 16.1875 16.175 15.325C16.175 14.45 16.8125 13.7375 17.625 13.7375Z" fill="#EDDECC"/>
</g>
<defs>
<clipPath id="clip0_6_64">
<rect width="30" height="30" fill="white" transform="translate(0 0.5)"/>
</clipPath>
</defs>
</svg>
